<svg width="18" height="18" viewBox="0 0 18 18" fill="none" xmlns="http://www.w3.org/2000/svg">
<path d="M12 7.5L8.25 11.25L6.75 9.75" stroke="#5920BC" stroke-width="1.5" stroke-linecap="round" stroke-linejoin="round"/>
<path d="M7.64314 1.42397C8.32453 0.525342 9.67547 0.525342 10.3569 1.42397L11.2079 2.5463C11.3938 2.79146 11.6975 2.91726 12.0023 2.87535L13.3976 2.6835C14.5149 2.52988 15.4701 3.48514 15.3165 4.60239L15.1247 5.99774C15.0827 6.30254 15.2085 6.60624 15.4537 6.79214L16.576 7.64314C17.4747 8.32453 17.4747 9.67547 16.576 10.3569L15.4537 11.2079C15.2085 11.3938 15.0827 11.6975 15.1247 12.0023L15.3165 13.3976C15.4701 14.5149 14.5149 15.4701 13.3976 15.3165L12.0023 15.1247C11.6975 15.0827 11.3938 15.2085 11.2079 15.4537L10.3569 16.576C9.67547 17.4747 8.32453 17.4747 7.64314 16.576L6.79214 15.4537C6.60624 15.2085 6.30254 15.0827 5.99774 15.1247L4.60238 15.3165C3.48514 15.4701 2.52988 14.5149 2.6835 13.3976L2.87535 12.0023C2.91726 11.6975 2.79146 11.3938 2.5463 11.2079L1.42397 10.3569C0.525342 9.67547 0.525342 8.32453 1.42397 7.64314L2.5463 6.79214C2.79146 6.60624 2.91726 6.30254 2.87535 5.99774L2.6835 4.60238C2.52988 3.48514 3.48514 2.52988 4.60239 2.6835L5.99774 2.87535C6.30254 2.91726 6.60624 2.79146 6.79214 2.5463L7.64314 1.42397Z" stroke="#5920BC" stroke-width="1.5"/>
</svg>
